<svg xmlns="http://www.w3.org/2000/svg" xmlns:xlink="http://www.w3.org/1999/xlink" viewBox="0 0 2122.98 1262.15"><defs><style>.cls-1{fill:none;}.cls-2{isolation:isolate;}.cls-3{clip-path:url(#clip-path);}.cls-4{opacity:0.3;mix-blend-mode:multiply;}.cls-5{fill:#ef4136;}</style><clipPath id="clip-path" transform="translate(74.81 -8.01)"><rect class="cls-1" width="1920" height="1080"/></clipPath></defs><g class="cls-2"><g id="Layer_2" data-name="Layer 2"><g id="Layer_1-2" data-name="Layer 1"><g class="cls-3"><g class="cls-4"><path class="cls-5" d="M1937.61,294c-32.7-5.48-40.11-47.27-60.61-65.94-25.63-23.34-63.24-27.46-98.46-18.28-83.22,21.68-151,152.75-248.68,88.6C1498,277.52,1478,252,1437.57,241.18c-32.93-8.77-69.67-8.16-102.49.67-31.36,8.43-59.72,24.52-78.95,47-28.35,33.06-48.76,98-115.07,68.91-38.36-16.84-33.7-61.11-58.19-87.73s-66.15-36.61-105-35A234.6,234.6,0,0,0,865,269.88a194.12,194.12,0,0,0-39,31.86c-16.36,17.44-27.15,38.88-50.86,50.65-42.72,21.21-101,16.26-143.72-1.95-20.16-8.59-38.55-20.38-52.92-35-15.29-15.59-22.35-36.89-42.7-48.76-24.84-14.49-61.56-7.81-89.27-2.73-37.55,6.89-70.52,21.54-86,52.22-12,23.91-18.86,49.94-56.81,51.28-33.71,1.2-50.2-23.58-66.47-43.87C216.82,298.1,194.46,277.7,159,267,88.48,245.63,3.49,268.39-33.53,323.48-45.28,341-13,356.69-1.27,339.19c41.9-62.36,152.24-64.69,200.39-7.32C218.5,355,234.51,381.54,267.52,393c28.7,10,62.9,5.92,87.91-9.28,34.27-20.82,29.29-63.44,66.17-80.16,16.83-7.63,37-10.47,55.75-12.68,12.87-1.51,28.63-4.61,40,3,10.64,7.12,17.15,24.14,25.29,33.53C585.24,376.6,661,403.48,733,395.63c34.07-3.71,67.24-14.79,90.15-36.74,14.8-14.18,24.33-31.45,39.49-45.45,20.62-19.05,47.39-33.34,76.72-41.13,49.89-13.24,107-7.36,126.67,38.41,12.74,29.6,20.48,57.85,56.16,73.86,26,11.65,58.74,13.39,86.16,4.41,43.08-14.11,51.63-48.62,74.76-77.95,22.69-28.78,62.36-44.6,103.31-45,54.51-.56,78.75,27.41,117,54.4,33,23.25,77.71,32.24,119.4,21.44,43.06-11.16,72.26-40.75,103-66.33,37.71-31.44,101.45-61.9,135.77-11,16.83,24.93,28.63,53.27,66.11,59.55C1951.15,328,1961.2,298,1937.61,294Z" transform="translate(74.81 -8.01)"/><path class="cls-5" d="M1938.85,522.22c-32.27,26.41-82.53,34.56-123.77,17.49-39.25-16.25-54.57-53.93-89.17-74.89-70.75-42.86-140.24,10.06-191,49.71-34.12,26.65-79.07,53.62-124.68,28.67-30.3-16.57-49.82-44.35-75.08-65.49-54.16-45.34-122.84-45.45-183.6-6.89-63,40-163.64,164.75-232.71,61.31C884,480,819.87,447.23,746.38,459c-36.72,5.87-66,24.4-93.63,44.3C614.19,531,564,572.32,510.13,544.4c-51.78-26.85-87-90.89-160-66.53-34.62,11.54-55,39-80.88,59.65-59.52,47.5-110.31,8.63-159.1-27.72C80.14,487.47,42,465.68-.33,473.9c-34,6.59-58.94,29.69-58.48,59,.31,20,37.67,20.07,37.36,0-.59-38.07,55-30.8,80.22-17.59,19.35,10.16,34.63,24.77,51.41,37.47,31,23.48,65.5,42.54,109.31,39.19,31.87-2.43,57.3-16.86,79.42-35.2,24.64-20.42,51.74-59.48,92.83-52,33,6,56.84,38,81.36,55.16,25.31,17.65,53.92,27.92,87.57,24.34,88.13-9.36,129-100.19,220.77-96.31,48.52,2,82.35,25.8,105.13,59.92,16.62,24.9,35.14,46,70,53,84.54,17.13,141.16-45.44,193.86-88.1,33.48-27.1,81.9-53.92,128.78-32.77,31.77,14.33,52.47,42.72,76.61,64.21,46.72,41.58,106.05,53.53,165.42,19.9,42.86-24.29,74.32-67,125.13-80.8,58.46-15.93,81.19,32.54,114.3,60.87,55.63,47.58,148.49,45.92,204.55,0C1982.45,530.17,1956,508.17,1938.85,522.22Z" transform="translate(74.81 -8.01)"/><path class="cls-5" d="M2013.6,784.34c-33.61,14.74-60.27-24.25-77.68-41.26a237.86,237.86,0,0,0-48.79-36.38c-34.7-19.7-77.34-32.49-119.71-28.27-44.77,4.46-75.68,28.52-102.22,57-27.84,29.88-72.71,83.6-124.55,52.74-53.85-32.06-61.9-99.64-127.92-122-98-33.24-159.18,64.07-228.23,100.12-27.62,14.42-61.47,20.64-88.57,1.85-16.18-11.22-26.11-28.15-36.59-43-19.21-27.23-39.95-53.26-76.54-65.46-90.48-30.16-160.81,27.42-222,73.28-39.07,29.28-83.85,44.48-125.3,9.31-25.74-21.84-43-49.76-70-70.69-67.12-52-144.76-19.51-202.19,26.08-37.87,30.07-98.13,90.74-157.92,65.85-43.26-18-48.29-70.12-88.13-93.46-36.62-21.44-88-18.13-123.31,3.63C-46,698.25-60.81,740.09-57,780c1.92,19.83,39.3,20,37.36,0-4.49-46.49,32.36-110.92,101.33-90.14,43.58,13.12,51.57,61.94,82.71,87.34,65.4,53.35,154.69,1.7,205.07-40.74,34.85-29.35,86.62-76.08,142.05-57.9,34,11.17,54.48,41.44,75.91,64.39,46.6,49.88,109.75,69.92,175.64,28.71,35.54-22.24,62.69-54.11,101.73-72.35,46.51-21.72,105.79-23.89,140.89,13.68,24,25.64,36.61,58.1,67.18,79.44,28.59,20,65.86,23.43,100.49,13.08,42.55-12.71,73.68-40.94,104.67-66.92,36.62-30.71,93-68.11,141.91-32,45.93,33.88,58.67,96.61,120.06,116.76,115,37.73,140.72-109.83,237.53-114.58,61.84-3,110.73,34.58,146.62,71.7,27.46,28.39,65.11,49.7,108.26,30.77C2053.74,801.88,2034.88,775,2013.6,784.34Z" transform="translate(74.81 -8.01)"/><path class="cls-5" d="M2016.82,912.57c-63.71,59.85-161.18,132.5-250.25,58.48-44-36.52-73.5-89.86-133.65-110.59-70.29-24.23-133.91,15.24-174.29,60.71-24.6,27.69-49.44,88.31-101.46,78.14-49.15-9.61-71.18-59.38-105.93-85.43-55.76-41.8-139-38.53-193.37,2.88-35.26,26.84-59.78,60.58-104.81,77.71-54,20.54-119.89,11.95-151.95-32.21-18.88-26-26.92-55.2-61-71.25-33.81-15.94-76.52-13.14-111.54-1.78-71.71,23.26-178.85,144.52-258.22,72.83-26.17-23.64-38.75-56.43-71.84-75C265.31,868.41,226,871.4,191.92,887,149,906.58,122.37,941.52,84.39,966c-25.6,16.51-64.29,35-94.22,14C-31.1,965-33.89,936.91-36,915.56c-2-19.81-39.36-20-37.36,0,6.2,61.86,47,126.16,134.11,98,74.64-24.1,165.63-166.94,242.66-77.55,19.83,23,35,50,65.13,65.35,35.85,18.23,79.9,14.88,117.33,2,76.72-26.33,203.27-160.25,268.58-50.3,18.7,31.49,37,57,77,72.1,39.63,15,84.78,14.44,125.12,1.66,42.43-13.44,72.81-38,102.44-65.63,39.69-37,94.28-64,152.27-33.88,61.08,31.77,107.8,142.77,202,93.84,67.41-35,95.12-165.7,202.39-133.16,76.82,23.3,100.94,107.75,176.33,136.32,100.37,38.05,190-32.16,251.34-89.78C2059.14,919.63,2032.81,897.54,2016.82,912.57Z" transform="translate(74.81 -8.01)"/><path class="cls-5" d="M1938.63,92.13c-4.5-27-30.63-45.83-62.07-51.11-41.49-7-79,13.74-108.39,35.75-39.77,29.83-76.34,69.68-136.83,56-55.82-12.66-72-65.14-111.43-94.94-52.32-39.58-112.32-27.15-151.17,17.36-19.7,22.57-33.36,49.56-57.19,69.5-35.1,29.35-126.43,31.5-158.55-3.6-23.66-25.85-29.53-57-60.51-79.2-26.89-19.29-61.37-30.63-96.6-33.27-80.72-6-130.67,36.29-174.07,87.2-28.63,33.58-59.69,68-113.43,70.51C650,169,618.1,137,588,100.65,569.25,78.07,548.8,54.59,516.8,44.49c-37.26-11.75-75.44-1.73-106.93,16.56-46.13,26.79-77.26,75.37-132,91.32-60.15,17.55-91.63-42.41-142.56-56.9C35,66.93-47.55,137.47-73.95,211.39c-6.87,19.24,29.18,27.45,36,8.27,14.42-40.4,43.78-80.37,94.38-94.18,61.32-16.72,92,15.15,135.44,42.62,73.43,46.47,144.2-4.82,196.06-49.39,34-29.18,85.16-67.78,134-36.14,28.11,18.21,42.84,48.4,65.74,70.65,46,44.78,126.62,58.32,188.46,27.68C845.53,146.54,865.3,62,946.53,42.86c36.17-8.52,77.39-2.69,108.68,14.45,36.1,19.78,42.83,51.44,65.53,79.46,37.48,46.28,141.86,53.69,195.73,24.79,23-12.31,39.21-31.65,53.67-50.48,16.28-21.23,32.18-52.42,61.16-63.53,54.23-20.78,90,43,115.84,70.84,25.06,27.05,58.7,45.66,100.33,48,45.07,2.48,81.07-15.35,113.1-40,19.09-14.69,36-31.94,58.28-43.54,28.76-15,77.58-19.37,83.76,17.6C1905.9,120.15,1941.91,111.75,1938.63,92.13Z" transform="translate(74.81 -8.01)"/><path class="cls-5" d="M1974.4,1145.49c-18.06,66.26-110.47,112.4-188.86,86.66-80-26.27-124.7-106.92-221.54-101-34.44,2.1-59.31,18.14-79.14,40.73-25.39,28.93-70.3,76.25-121.59,53.76-34.22-15-38.94-57.73-64-80.91-21.31-19.71-50.55-33.28-81.38-39.48-71.68-14.4-128.38,10.94-173.53,55.92-30.95,30.83-61.87,61-114.82,57.83-57.68-3.41-81.44-44.25-117.24-74.81-49.82-42.52-130-53.82-192.41-23-32.24,15.9-51.14,42.45-76.07,64.76-41.87,37.47-94.77,34.47-137.36,0-53.79-43.59-100.25-95.56-182.69-61.13-42.15,17.61-74.23,51.24-120.21,62.66-51.78,12.86-106.24-4-140-37.93-15.35-15.44-41.65,6.69-26.41,22,50.72,51,139.22,65.89,209.35,34.26,34-15.35,61-40.38,96.13-54.12,53.72-21,87.6,11.25,121,41.73,51.44,46.94,126,74.16,191.81,26.7,32.76-23.63,51.65-60.08,92.24-76,52.87-20.75,108.48-5.64,145.8,29.12,26.15,24.35,47.58,52.06,84.24,66.33,35.72,13.9,78.76,14.36,114.89,1.27,41-14.83,63.75-45.56,92.85-72,31.46-28.56,71.86-42.12,118.06-34.41,44.87,7.49,72.89,30.85,91.51,64.35,16.88,30.37,36.54,57,79.74,61.5,30.72,3.24,62-5.8,87.13-20.26,40.33-23.23,57.38-78.86,112.79-78,61.18,1,102.69,46.36,147.46,74.56,33.44,21.07,70.83,34.64,113.44,33.55,81.28-2.09,156.67-49.73,174.83-116.35C2015.75,1134.26,1979.73,1125.93,1974.4,1145.49Z" transform="translate(74.81 -8.01)"/></g></g></g></g></g></svg>