<svg xmlns="http://www.w3.org/2000/svg" viewBox="0 0 354.48 73.6"><defs><style>.cls-1{fill:#7049b6;}.cls-2{font-size:27.7px;fill:#f9ddd0;font-family:BaliviaFree-Bold, Balivia Free;font-weight:700;letter-spacing:0em;}.cls-3{letter-spacing:0.03em;}.cls-4{letter-spacing:0.07em;}.cls-5{letter-spacing:0.03em;}.cls-6{letter-spacing:0.06em;}.cls-7{letter-spacing:0em;}.cls-8{letter-spacing:0.04em;}.cls-9{letter-spacing:-0.01em;}.cls-10{letter-spacing:-0.04em;}.cls-11{letter-spacing:0.03em;}.cls-12{letter-spacing:0.07em;}.cls-13{letter-spacing:0.02em;}.cls-14{letter-spacing:0.03em;}.cls-15{letter-spacing:0.02em;}.cls-16{letter-spacing:0.05em;}.cls-17{letter-spacing:0.02em;}.cls-18{letter-spacing:0.02em;}.cls-19{letter-spacing:0em;}.cls-20{letter-spacing:0.01em;}.cls-21{letter-spacing:0.05em;}.cls-22{letter-spacing:0.02em;}.cls-23{letter-spacing:0.04em;}.cls-24{letter-spacing:-0.01em;}.cls-25{letter-spacing:-0.03em;}.cls-26{letter-spacing:0.01em;}.cls-27{letter-spacing:-0.02em;}.cls-28{letter-spacing:0.01em;}.cls-29{letter-spacing:-0.03em;}</style></defs><g id="Layer_2" data-name="Layer 2"><g id="Layer_1-2" data-name="Layer 1"><path class="cls-1" d="M0,0H354.48a0,0,0,0,1,0,0V52.08A21.53,21.53,0,0,1,333,73.6H21.53A21.53,21.53,0,0,1,0,52.08V0A0,0,0,0,1,0,0Z"/><text class="cls-2" transform="translate(27.8 31.79)">1<tspan class="cls-3" x="6.79" y="0">5% </tspan><tspan class="cls-4" x="41.53" y="0">D</tspan><tspan class="cls-5" x="58.59" y="0">e</tspan><tspan class="cls-6" x="70.7" y="0">s</tspan><tspan class="cls-7" x="82.03" y="0">c</tspan><tspan class="cls-8" x="93.5" y="0">u</tspan><tspan class="cls-9" x="107.26" y="0">e</tspan><tspan class="cls-10" x="118.4" y="0">n</tspan><tspan class="cls-11" x="130.81" y="0">t</tspan><tspan class="cls-3" x="140.56" y="0">o </tspan><tspan class="cls-12" x="159.46" y="0">p</tspan><tspan class="cls-13" x="172.95" y="0">o</tspan><tspan class="cls-14" x="185.05" y="0">r </tspan><tspan class="cls-15" x="202.45" y="0">p</tspan><tspan class="cls-16" x="214.47" y="0">a</tspan><tspan class="cls-17" x="228.32" y="0">g</tspan><tspan class="cls-3" x="241.18" y="0">o c</tspan><tspan class="cls-13" x="272.37" y="0">o</tspan><tspan class="cls-3" x="284.48" y="0">n</tspan><tspan class="cls-18"><tspan x="27.31" y="25.1">t</tspan><tspan class="cls-19" x="36.93" y="25.1">r</tspan><tspan class="cls-20" x="46.98" y="25.1">a</tspan><tspan class="cls-17" x="59.89" y="25.1">n</tspan><tspan class="cls-21" x="74.08" y="25.1">s</tspan><tspan class="cls-22" x="85.21" y="25.1">f</tspan><tspan class="cls-9" x="92.72" y="25.1">e</tspan><tspan class="cls-23" x="103.86" y="25.1">r</tspan><tspan class="cls-24" x="115.1" y="25.1">e</tspan><tspan x="126.24" y="25.1">n</tspan><tspan class="cls-24" x="140.29" y="25.1">c</tspan><tspan class="cls-25" x="151.42" y="25.1">i</tspan><tspan class="cls-3" x="157.24" y="25.1">a </tspan><tspan class="cls-15" x="177.19" y="25.1">b</tspan><tspan class="cls-26" x="190.48" y="25.1">a</tspan><tspan x="203.39" y="25.1">n</tspan><tspan class="cls-27" x="217.44" y="25.1">c</tspan><tspan class="cls-28" x="228.41" y="25.1">a</tspan><tspan class="cls-3" x="241.32" y="25.1">r</tspan><tspan class="cls-29" x="252.26" y="25.1">i</tspan><tspan class="cls-3" x="258.08" y="25.1">a</tspan></tspan></text></g></g></svg>