<svg xmlns="http://www.w3.org/2000/svg" viewBox="0 0 294.68 72.34"><defs><style>.cls-1{fill:#7049b6;}.cls-16,.cls-2{font-size:25.74px;fill:#f9ddd0;font-family:BaliviaFree-Bold, Balivia Free;font-weight:700;}.cls-2,.cls-9{letter-spacing:0.03em;}.cls-16,.cls-3{letter-spacing:0em;}.cls-4{letter-spacing:0.04em;}.cls-5{letter-spacing:0.01em;}.cls-6{letter-spacing:0.03em;}.cls-7{letter-spacing:0.03em;}.cls-8{letter-spacing:0em;}.cls-10{letter-spacing:0em;}.cls-11{letter-spacing:-0.04em;}.cls-12{letter-spacing:-0.01em;}.cls-13{letter-spacing:0.04em;}.cls-14{letter-spacing:0.03em;}.cls-15{letter-spacing:0.03em;}.cls-17{letter-spacing:0.07em;}.cls-18{letter-spacing:-0.01em;}.cls-19{letter-spacing:0.03em;}.cls-20{letter-spacing:0.02em;}.cls-21{letter-spacing:-0.03em;}</style></defs><g id="Layer_2" data-name="Layer 2"><g id="Layer_1-2" data-name="Layer 1"><rect class="cls-1" width="294.68" height="72.34" rx="36.17"/><text class="cls-2" transform="translate(29.89 30.32)">6 <tspan class="cls-3" x="16.37" y="0">c</tspan><tspan class="cls-4" x="27.02" y="0">u</tspan><tspan class="cls-3" x="39.81" y="0">o</tspan><tspan class="cls-5" x="50.59" y="0">t</tspan><tspan class="cls-6" x="59.27" y="0">a</tspan><tspan x="71.83" y="0">s</tspan><tspan class="cls-7"><tspan x="-11.08" y="23.31">s</tspan><tspan class="cls-8" x="-1.4" y="23.31">i</tspan><tspan class="cls-9" x="4.75" y="23.31">n </tspan><tspan class="cls-10" x="24.13" y="23.31">i</tspan><tspan class="cls-11" x="30.28" y="23.31">n</tspan><tspan x="41.81" y="23.31">t</tspan><tspan class="cls-12" x="50.86" y="23.31">e</tspan><tspan class="cls-13" x="61.21" y="23.31">r</tspan><tspan class="cls-14" x="71.66" y="23.31">é</tspan><tspan class="cls-15" x="82.91" y="23.31">s</tspan></tspan></text><text class="cls-16" transform="translate(198.1 30.32)">S<tspan class="cls-7" x="11.79" y="0">t</tspan><tspan class="cls-17" x="20.84" y="0">o</tspan><tspan class="cls-18" x="33.38" y="0">c</tspan><tspan class="cls-19" x="43.67" y="0">k</tspan><tspan class="cls-10"><tspan x="-21.08" y="23.31">in</tspan><tspan class="cls-20" x="-2.44" y="23.31">m</tspan><tspan class="cls-15" x="16.93" y="23.31">e</tspan><tspan class="cls-3" x="28.36" y="23.31">d</tspan><tspan class="cls-21" x="40.33" y="23.31">i</tspan><tspan class="cls-12" x="45.73" y="23.31">a</tspan><tspan class="cls-7" x="57.18" y="23.31">t</tspan><tspan class="cls-19" x="66.24" y="23.31">o</tspan></tspan></text></g></g></svg>