<svg xmlns="http://www.w3.org/2000/svg" viewBox="0 0 1139.72 483.03"><defs><style>.cls-1,.cls-2{fill:#f9ddd0;}.cls-2{font-size:44.64px;font-family:ITCAvantGardePro-Bold, ITC Avant Garde Gothic Pro;font-weight:700;}</style></defs><g id="Layer_2" data-name="Layer 2"><g id="Layer_1-2" data-name="Layer 1"><path class="cls-1" d="M145.88,89.42V282.51a39.74,39.74,0,0,1-39.73,39.74h-2.83a39.74,39.74,0,0,1-39.74-39.74V89.42A17.13,17.13,0,0,0,46.45,72.29H31.57A31.58,31.58,0,0,1,0,40.72V31.57A31.58,31.58,0,0,1,31.57,0H177.46A31.58,31.58,0,0,1,209,31.57v9.15a31.58,31.58,0,0,1-31.57,31.57H163A17.13,17.13,0,0,0,145.88,89.42Z"/><path class="cls-1" d="M682,89.42V282.51a39.74,39.74,0,0,1-39.74,39.74h-2.83a39.74,39.74,0,0,1-39.73-39.74V89.42a17.13,17.13,0,0,0-17.13-17.13H567.64a31.57,31.57,0,0,1-31.57-31.57V31.57A31.57,31.57,0,0,1,567.64,0H713.52a31.57,31.57,0,0,1,31.57,31.57v9.15a31.57,31.57,0,0,1-31.57,31.57H699.08A17.13,17.13,0,0,0,682,89.42Z"/><path class="cls-1" d="M372.14,322.25c-87.7,0-163.22-68-163.22-157.35a178.54,178.54,0,0,1,12.16-66.29c4.62-12.17,12.17-24.34,20.15-34.83C273.11,21.82,319.69,0,372.56,0c90.63,0,164.06,69.65,164.06,161.12C536.62,253,463.19,322.25,372.14,322.25ZM373,69.65c-50.77,0-84.76,42-84.76,90.63,0,49.52,34,92.32,85.6,92.32,49.93,0,83.5-43.64,83.5-91.06C457.32,113.29,423.75,69.65,373,69.65Z"/><path class="cls-1" d="M908,322.25c-87.7,0-163.22-68-163.22-157.35a178.35,178.35,0,0,1,12.17-66.29c4.61-12.17,12.16-24.34,20.14-34.83C808.94,21.82,855.51,0,908.38,0,999,0,1072.44,69.65,1072.44,161.12,1072.44,253,999,322.25,908,322.25Zm.84-252.6c-50.77,0-84.76,42-84.76,90.63,0,49.52,34,92.32,85.6,92.32,49.93,0,83.5-43.64,83.5-91.06C993.14,113.29,959.57,69.65,908.8,69.65Z"/><text class="cls-2" transform="translate(1092.24 48.85)">R</text><path class="cls-1" d="M1106.11,6.29A27.32,27.32,0,1,1,1078.8,33.6a27.34,27.34,0,0,1,27.31-27.31m0-6.29a33.61,33.61,0,1,0,33.61,33.6A33.6,33.6,0,0,0,1106.11,0Z"/><path class="cls-1" d="M292.62,452.57a3.71,3.71,0,0,1-.71,1.82,22.44,22.44,0,0,1-7.49,7A19.25,19.25,0,0,1,274.6,464a18.61,18.61,0,0,1-10.53-3.24,23.09,23.09,0,0,1-7.74-8.75,26.44,26.44,0,0,1-.05-23.94,22.37,22.37,0,0,1,7.74-8.65,19.36,19.36,0,0,1,10.78-3.19,18.51,18.51,0,0,1,8.66,2,15.66,15.66,0,0,1,6.12,5.52,13.88,13.88,0,0,1,2.23,7.64,13.25,13.25,0,0,1-2.38,7.69,15.83,15.83,0,0,1-6.93,5.42,26.67,26.67,0,0,1-10.63,2,24,24,0,0,1-8.61-1.62,18.57,18.57,0,0,0,4.81,10.38,11.77,11.77,0,0,0,8.66,3.89q6.57,0,12.14-6.07a6.8,6.8,0,0,1,2.13-1.82,1.21,1.21,0,0,1,1.11.1A1,1,0,0,1,292.62,452.57Zm-22.47-29.11a20,20,0,0,0-5.32,7.75A26.5,26.5,0,0,0,263,441.74v.4h1.72a17.53,17.53,0,0,0,2.13-.1,19.6,19.6,0,0,0,9.06-2.38,15.44,15.44,0,0,0,5.71-5.36,12.29,12.29,0,0,0,1.93-6.43,7.79,7.79,0,0,0-1.77-5.22,5.78,5.78,0,0,0-4.61-2.07A10.57,10.57,0,0,0,270.15,423.46Z"/><path class="cls-1" d="M343.74,460.46v1.82a.45.45,0,0,1-.51.51H325.31a.44.44,0,0,1-.5-.51v-1.82a.44.44,0,0,1,.5-.5q2.54,0,3.39-1.62a9.79,9.79,0,0,0,.86-4.56V433.13q0-9.81-6.27-9.82c-2.77,0-5,1.39-6.68,4.15s-2.53,6.45-2.53,11v15.28a9.79,9.79,0,0,0,.86,4.56q.85,1.62,3.39,1.62a.44.44,0,0,1,.51.5v1.82a.45.45,0,0,1-.51.51H300.41a.44.44,0,0,1-.5-.51v-1.82a.44.44,0,0,1,.5-.5q2.54,0,3.39-1.62a9.79,9.79,0,0,0,.86-4.56V427.87q0-5.56-3.54-7.19c-.54-.27-.49-.74.15-1.42a9,9,0,0,1,2.94-1.87,10,10,0,0,1,4-.86c2.29,0,3.83.76,4.6,2.28a15.77,15.77,0,0,1,1.27,6.63,19.53,19.53,0,0,1,5.11-6.68,11.19,11.19,0,0,1,7.34-2.53q6.38,0,9.41,4.55t3,12.35v20.65a9.79,9.79,0,0,0,.86,4.56q.86,1.62,3.39,1.62A.44.44,0,0,1,343.74,460.46Z"/><path class="cls-1" d="M361.55,460.76a23.09,23.09,0,0,1-7.74-8.75,25.56,25.56,0,0,1-2.89-12,25,25,0,0,1,2.89-11.84,23.31,23.31,0,0,1,7.74-8.7,18.76,18.76,0,0,1,10.63-3.24,18.17,18.17,0,0,1,8.35,2,17.44,17.44,0,0,1,6.18,5,9.92,9.92,0,0,1,2.27,5.87,6,6,0,0,1-1.21,3.85,4.52,4.52,0,0,1-3.75,1.52,4.3,4.3,0,0,1-3.49-1.52,4.59,4.59,0,0,1-1.06-3.54,10.34,10.34,0,0,0-1.42-6.43,5.28,5.28,0,0,0-4.66-2.38,10.93,10.93,0,0,0-9.41,5.11q-3.54,5.12-3.54,14.43,0,8.6,3.89,13.81a12,12,0,0,0,10.08,5.21,13.18,13.18,0,0,0,6.22-1.41,24.38,24.38,0,0,0,5.82-4.66,6.79,6.79,0,0,1,2-1.82,1.26,1.26,0,0,1,1.21,0,1.46,1.46,0,0,1,.51,1.21,4.93,4.93,0,0,1-.81,1.93q-7,9.62-17.21,9.61A18.76,18.76,0,0,1,361.55,460.76Z"/><path class="cls-1" d="M438.43,460.71a8.6,8.6,0,0,1-2.93,1.93,10,10,0,0,1-4,.86,5.08,5.08,0,0,1-4.05-1.52,7.59,7.59,0,0,1-1.62-4.25A14,14,0,0,1,414,463.8a16.28,16.28,0,0,1-10.78-3.49,11.43,11.43,0,0,1-4.21-9.26,13.35,13.35,0,0,1,3.6-9.11,24.2,24.2,0,0,1,9.66-6.38A40.44,40.44,0,0,1,425.63,433V430.5a11.57,11.57,0,0,0-2-7.14,6.31,6.31,0,0,0-5.26-2.68,7.66,7.66,0,0,0-5.67,2.13,7.5,7.5,0,0,0-2.13,5.56,5.14,5.14,0,0,1-1.36,3.8,5.4,5.4,0,0,1-7.19,0,5.14,5.14,0,0,1-1.37-3.8,8.71,8.71,0,0,1,2.48-5.82,18.11,18.11,0,0,1,6.58-4.5,22.12,22.12,0,0,1,8.66-1.72,21.34,21.34,0,0,1,8.05,1.52,14.27,14.27,0,0,1,6.22,4.75,12.8,12.8,0,0,1,2.43,7.9v21.66q0,5.56,3.54,7.19C439.12,459.55,439.07,460,438.43,460.71Zm-15.13-6.17a18.09,18.09,0,0,0,2.33-9.26v-8.2a22.43,22.43,0,0,0-12.56,3.9,11.73,11.73,0,0,0-5,10.07,7.41,7.41,0,0,0,2.13,5.21,7.26,7.26,0,0,0,5.57,2.28C419.25,458.54,421.74,457.21,423.3,454.54Z"/><path class="cls-1" d="M459.38,418a7,7,0,0,1,1.57,3.69,49.15,49.15,0,0,1,.3,6.18V473a8.87,8.87,0,0,1-3.44,7.24,12.74,12.74,0,0,1-8.3,2.78,17.28,17.28,0,0,1-8.75-1.92c-2.2-1.28-3.29-3-3.29-5.06a5.4,5.4,0,0,1,1.41-3.9,5,5,0,0,1,3.75-1.47,5.15,5.15,0,0,1,3.8,1.47,5.3,5.3,0,0,1,1.46,3.9,4.52,4.52,0,0,0,.46,2.23,1.39,1.39,0,0,0,1.26.81,1.76,1.76,0,0,0,1.83-1.42,19,19,0,0,0,.4-4.66V427.87q0-5.56-3.44-7.19c-.54-.27-.51-.74.1-1.42a8.38,8.38,0,0,1,2.89-1.87,9.92,9.92,0,0,1,4-.86A5,5,0,0,1,459.38,418Zm-7.13-8.86a5.05,5.05,0,0,1-1.52-3.74,5,5,0,0,1,1.52-3.65,5.09,5.09,0,0,1,3.74-1.52,5.19,5.19,0,0,1,5.16,5.17,5.05,5.05,0,0,1-1.52,3.74,5,5,0,0,1-3.64,1.52A5.09,5.09,0,0,1,452.25,409.14Z"/><path class="cls-1" d="M513.54,460.71a8.65,8.65,0,0,1-2.94,1.93,10,10,0,0,1-4,.86,5.09,5.09,0,0,1-4.05-1.52,7.66,7.66,0,0,1-1.62-4.25,14,14,0,0,1-11.84,6.07,16.28,16.28,0,0,1-10.78-3.49,11.45,11.45,0,0,1-4.2-9.26,13.38,13.38,0,0,1,3.59-9.11,24.24,24.24,0,0,1,9.67-6.38A40.38,40.38,0,0,1,500.73,433V430.5a11.57,11.57,0,0,0-2-7.14,6.33,6.33,0,0,0-5.27-2.68,7.66,7.66,0,0,0-5.67,2.13,7.53,7.53,0,0,0-2.12,5.56,5.14,5.14,0,0,1-1.37,3.8,5.39,5.39,0,0,1-7.18,0,5.1,5.1,0,0,1-1.37-3.8,8.66,8.66,0,0,1,2.48-5.82,17.94,17.94,0,0,1,6.58-4.5,22.07,22.07,0,0,1,8.65-1.72,21.3,21.3,0,0,1,8.05,1.52,14.22,14.22,0,0,1,6.22,4.75,12.8,12.8,0,0,1,2.43,7.9v21.66q0,5.56,3.55,7.19C514.23,459.55,514.18,460,513.54,460.71Zm-15.14-6.17a18.09,18.09,0,0,0,2.33-9.26v-8.2a22.37,22.37,0,0,0-12.55,3.9,11.7,11.7,0,0,0-5,10.07,7.44,7.44,0,0,0,2.12,5.21,7.27,7.27,0,0,0,5.57,2.28Q496.07,458.54,498.4,454.54Z"/><path class="cls-1" d="M590.52,460.46v1.82a.45.45,0,0,1-.51.51H572.09a.44.44,0,0,1-.5-.51v-1.82a.44.44,0,0,1,.5-.5q2.53,0,3.39-1.62a9.79,9.79,0,0,0,.86-4.56V433.13q0-9.81-6.27-9.82c-2.77,0-5,1.39-6.68,4.15s-2.53,6.45-2.53,11v15.28a9.79,9.79,0,0,0,.86,4.56q.85,1.62,3.39,1.62a.44.44,0,0,1,.5.5v1.82a.45.45,0,0,1-.5.51H547.19a.44.44,0,0,1-.5-.51v-1.82a.44.44,0,0,1,.5-.5q2.53,0,3.39-1.62a9.79,9.79,0,0,0,.86-4.56V433.13q0-9.81-6.27-9.82c-2.77,0-5,1.39-6.68,4.15s-2.53,6.45-2.53,11v15.28a9.79,9.79,0,0,0,.86,4.56q.85,1.62,3.39,1.62a.44.44,0,0,1,.5.5v1.82a.45.45,0,0,1-.5.51H522.29a.45.45,0,0,1-.51-.51v-1.82a.44.44,0,0,1,.51-.5q2.54,0,3.39-1.62a9.92,9.92,0,0,0,.86-4.56V427.87q0-5.56-3.54-7.19c-.54-.27-.49-.74.15-1.42a9,9,0,0,1,2.94-1.87,9.93,9.93,0,0,1,4-.86q3.43,0,4.6,2.28a15.77,15.77,0,0,1,1.27,6.63,19.53,19.53,0,0,1,5.11-6.68,11.19,11.19,0,0,1,7.34-2.53,11.05,11.05,0,0,1,7.84,2.78,14.16,14.16,0,0,1,4,7.74,20.48,20.48,0,0,1,5.21-7.59,11.41,11.41,0,0,1,7.85-2.93q6.38,0,9.41,4.55t3,12.35v20.65a9.79,9.79,0,0,0,.86,4.56Q587.48,460,590,460A.44.44,0,0,1,590.52,460.46Z"/><path class="cls-1" d="M608.33,460.76a23.09,23.09,0,0,1-7.74-8.75,25.44,25.44,0,0,1-2.89-12,24.89,24.89,0,0,1,2.89-11.84,23.31,23.31,0,0,1,7.74-8.7A18.76,18.76,0,0,1,619,416.23a19.27,19.27,0,0,1,10.73,3.24,23.05,23.05,0,0,1,7.84,8.7A24.89,24.89,0,0,1,640.42,440a25.44,25.44,0,0,1-2.89,12,22.84,22.84,0,0,1-7.84,8.75A19.27,19.27,0,0,1,619,464,18.76,18.76,0,0,1,608.33,460.76Zm16.7-3.84a17.82,17.82,0,0,0,4.3-7.14A29.4,29.4,0,0,0,630.9,440a29,29,0,0,0-1.57-9.71,17.89,17.89,0,0,0-4.3-7.09,8.57,8.57,0,0,0-6.07-2.63,8.29,8.29,0,0,0-5.92,2.63,18.18,18.18,0,0,0-4.25,7.09,29,29,0,0,0-1.57,9.71,29.4,29.4,0,0,0,1.57,9.77,18.1,18.1,0,0,0,4.25,7.14,8.29,8.29,0,0,0,5.92,2.63A8.57,8.57,0,0,0,625,456.92Z"/><path class="cls-1" d="M656.61,462.54a18.43,18.43,0,0,1-6.53-3.4,6,6,0,0,1-2.48-4.55,6.46,6.46,0,0,1,5.16-5.87c.61,0,1,.47,1.12,1.42a9,9,0,0,0,3.44,6.58,11.42,11.42,0,0,0,7.59,2.73,9,9,0,0,0,6.18-2,6,6,0,0,0,2.22-4.6,5.61,5.61,0,0,0-2.63-4.51,78.76,78.76,0,0,0-8.3-5.11,60.37,60.37,0,0,1-10.27-6.37,8.87,8.87,0,0,1-3.6-7.09,11.89,11.89,0,0,1,4.71-9.67q4.71-3.8,12-3.79a29,29,0,0,1,8.66,1.21,16.59,16.59,0,0,1,6.12,3.19,5.2,5.2,0,0,1,.61,8,5.2,5.2,0,0,1-3.34,1.72q-.91,0-1.11-1.11c-.48-3.11-1.72-5.33-3.75-6.69a12.35,12.35,0,0,0-7-2,10,10,0,0,0-6.13,1.87,5.62,5.62,0,0,0-2.48,4.61c0,1.89,1,3.59,2.89,5.11a56.65,56.65,0,0,0,8.75,5.31q4.56,2.43,7.34,4.26a19.94,19.94,0,0,1,4.71,4.2,8.22,8.22,0,0,1,1.92,5.31,10.67,10.67,0,0,1-4.7,9q-4.71,3.43-12.4,3.44A29.16,29.16,0,0,1,656.61,462.54Z"/><path class="cls-1" d="M753,419.37a21.17,21.17,0,0,1,7.14,8.55,27.27,27.27,0,0,1,2.58,11.89A28.53,28.53,0,0,1,760.11,452a21.68,21.68,0,0,1-7.14,8.8A17.36,17.36,0,0,1,742.65,464q-5.37,0-10.12-4.75v3a.45.45,0,0,1-.51.51H718.86a.44.44,0,0,1-.5-.51v-1.82a.44.44,0,0,1,.5-.5q2.53,0,3.39-1.62a9.92,9.92,0,0,0,.86-4.56V413.39q0-5.56-3.54-7.18c-.54-.27-.49-.75.15-1.42a8.82,8.82,0,0,1,2.94-1.87,9.8,9.8,0,0,1,4-.86q3.84,0,4.85,2.73a25.26,25.26,0,0,1,1,8.3v7.69q4.76-4.54,10.12-4.55A17.7,17.7,0,0,1,753,419.37Zm-2.58,34.56q2.79-5.61,2.79-14.12a30.19,30.19,0,0,0-2.79-13.71q-2.77-5.52-7.74-5.52-5.26,0-7.69,5.36T732.53,440q0,8.72,2.43,14.12t7.69,5.42Q747.62,459.55,750.39,453.93Z"/><path class="cls-1" d="M788.91,460.46v1.82a.45.45,0,0,1-.51.51H770.49a.45.45,0,0,1-.51-.51v-1.82a.44.44,0,0,1,.51-.5q2.52,0,3.39-1.62a9.92,9.92,0,0,0,.86-4.56V427.87q0-5.56-3.55-7.19c-.54-.27-.49-.74.16-1.42a9,9,0,0,1,2.93-1.87,10,10,0,0,1,4-.86c2.56,0,4.18.9,4.86,2.68a25.12,25.12,0,0,1,1,8.25v26.32a9.92,9.92,0,0,0,.86,4.56c.57,1.08,1.71,1.62,3.39,1.62A.44.44,0,0,1,788.91,460.46ZM775,409.14a5.09,5.09,0,0,1-1.52-3.74,5,5,0,0,1,1.52-3.65,5.1,5.1,0,0,1,3.75-1.52A5.19,5.19,0,0,1,784,405.4a5.09,5.09,0,0,1-1.52,3.74,5,5,0,0,1-3.64,1.52A5.1,5.1,0,0,1,775,409.14Z"/><path class="cls-1" d="M835.27,452.57a3.71,3.71,0,0,1-.71,1.82,22.44,22.44,0,0,1-7.49,7,19.25,19.25,0,0,1-9.82,2.63,18.61,18.61,0,0,1-10.53-3.24A23.17,23.17,0,0,1,799,452a26.52,26.52,0,0,1-.05-23.94,22.37,22.37,0,0,1,7.74-8.65,19.38,19.38,0,0,1,10.78-3.19,18.49,18.49,0,0,1,8.66,2,15.59,15.59,0,0,1,6.12,5.52,13.88,13.88,0,0,1,2.23,7.64,13.18,13.18,0,0,1-2.38,7.69,15.83,15.83,0,0,1-6.93,5.42,26.67,26.67,0,0,1-10.63,2,24.05,24.05,0,0,1-8.61-1.62,18.57,18.57,0,0,0,4.81,10.38,11.77,11.77,0,0,0,8.66,3.89q6.57,0,12.14-6.07a6.8,6.8,0,0,1,2.13-1.82,1.21,1.21,0,0,1,1.11.1A1,1,0,0,1,835.27,452.57ZM812.8,423.46a20,20,0,0,0-5.32,7.75,26.5,26.5,0,0,0-1.87,10.53v.4h1.72a17.42,17.42,0,0,0,2.13-.1,19.53,19.53,0,0,0,9.06-2.38,15.55,15.55,0,0,0,5.72-5.36,12.37,12.37,0,0,0,1.92-6.43,7.79,7.79,0,0,0-1.77-5.22,5.78,5.78,0,0,0-4.61-2.07A10.57,10.57,0,0,0,812.8,423.46Z"/><path class="cls-1" d="M886.39,460.46v1.82a.45.45,0,0,1-.51.51H868a.45.45,0,0,1-.5-.51v-1.82a.44.44,0,0,1,.5-.5c1.69,0,2.82-.54,3.4-1.62a9.93,9.93,0,0,0,.85-4.56V433.13q0-9.81-6.27-9.82c-2.77,0-5,1.39-6.68,4.15s-2.53,6.45-2.53,11v15.28a9.79,9.79,0,0,0,.86,4.56Q858.45,460,861,460a.44.44,0,0,1,.51.5v1.82a.45.45,0,0,1-.51.51H843.06a.44.44,0,0,1-.5-.51v-1.82a.44.44,0,0,1,.5-.5q2.54,0,3.39-1.62a9.77,9.77,0,0,0,.87-4.56V427.87c0-3.71-1.19-6.11-3.55-7.19-.54-.27-.49-.74.15-1.42a9,9,0,0,1,2.94-1.87,10,10,0,0,1,4-.86c2.29,0,3.83.76,4.6,2.28a15.77,15.77,0,0,1,1.27,6.63,19.53,19.53,0,0,1,5.11-6.68,11.19,11.19,0,0,1,7.34-2.53q6.38,0,9.41,4.55t3,12.35v20.65a9.79,9.79,0,0,0,.86,4.56q.85,1.62,3.39,1.62A.44.44,0,0,1,886.39,460.46Z"/></g></g></svg>